<svg width="30" height="31" viewBox="0 0 30 31" fill="none" xmlns="http://www.w3.org/2000/svg">
<path fill-rule="evenodd" clip-rule="evenodd" d="M7.39281 6.97053H22.3878C24.8616 6.97053 26.8753 8.94928 26.8753 11.3818V14.4705C26.8753 15.1618 26.3166 15.7205 25.6253 15.7205C24.9341 15.7205 24.3753 15.1618 24.3753 14.4705V11.3818C24.3753 10.3293 23.4841 9.47053 22.3878 9.47053H7.39281L9.00906 11.0868C9.49656 11.5755 9.49656 12.3655 9.00906 12.8543C8.76531 13.098 8.44531 13.2205 8.12531 13.2205C7.80531 13.2205 7.48531 13.098 7.24156 12.8543L3.49156 9.10428C3.00281 8.61553 3.00281 7.82553 3.49156 7.33678L7.24156 3.58678C7.72906 3.09803 8.52031 3.09803 9.00906 3.58678C9.49656 4.07553 9.49656 4.86553 9.00906 5.35428L7.39281 6.97053ZM20.9913 18.5871C21.48 18.0983 22.27 18.0983 22.7587 18.5871L26.5088 22.3371C26.9975 22.8258 26.9975 23.6158 26.5088 24.1046L22.7587 27.8546C22.515 28.0983 22.195 28.2208 21.875 28.2208C21.555 28.2208 21.235 28.0983 20.9913 27.8546C20.5025 27.3658 20.5025 26.5758 20.9913 26.0871L22.6075 24.4708H7.6125C5.1375 24.4708 3.125 22.4921 3.125 20.0596V16.9708C3.125 16.2796 3.685 15.7208 4.375 15.7208C5.065 15.7208 5.625 16.2796 5.625 16.9708V20.0596C5.625 21.1133 6.51625 21.9708 7.6125 21.9708H22.6075L20.9913 20.3546C20.5025 19.8658 20.5025 19.0758 20.9913 18.5871Z" fill="#9295A6"/>
</svg>
